<svg width="77" height="48" viewBox="0 0 77 48" fill="none" xmlns="http://www.w3.org/2000/svg">
    <path d="M45.6446 30.3929C45.6446 29.9046 45.24 29.5 44.7517 29.5H32.2517C31.7635 29.5 31.3589 29.9046 31.3589 30.3929C31.3589 30.63 31.4565 30.8532 31.624 31.0206L37.874 37.2706C38.0414 37.4381 38.2646 37.5357 38.5017 37.5357C38.7389 37.5357 38.9621 37.4381 39.1295 37.2706L45.3795 31.0206C45.5469 30.8532 45.6446 30.63 45.6446 30.3929Z" fill="#212529" />
    <rect width="77" height="29" rx="4" fill="#212529" />
    <path d="M12.7068 21H11.5447V11.0059H17.116V12.0381H12.7068V15.6953H16.8494V16.7275H12.7068V21ZM24.773 17.2471C24.773 18.4684 24.4654 19.4232 23.8502 20.1113C23.235 20.7949 22.385 21.1367 21.3004 21.1367C20.6305 21.1367 20.0357 20.9795 19.5162 20.665C18.9967 20.3506 18.5956 19.8994 18.3131 19.3115C18.0305 18.7236 17.8893 18.0355 17.8893 17.2471C17.8893 16.0257 18.1946 15.0755 18.8053 14.3965C19.416 13.7129 20.2636 13.3711 21.3482 13.3711C22.3964 13.3711 23.2281 13.7197 23.8434 14.417C24.4632 15.1143 24.773 16.0576 24.773 17.2471ZM19.065 17.2471C19.065 18.2041 19.2564 18.9333 19.6393 19.4346C20.0221 19.9359 20.5849 20.1865 21.3277 20.1865C22.0706 20.1865 22.6334 19.9382 23.0162 19.4414C23.4036 18.9401 23.5973 18.2087 23.5973 17.2471C23.5973 16.2946 23.4036 15.5723 23.0162 15.0801C22.6334 14.5833 22.066 14.335 21.3141 14.335C20.5712 14.335 20.0107 14.5788 19.6324 15.0664C19.2542 15.554 19.065 16.2809 19.065 17.2471ZM27.6039 21H26.4691V10.3633H27.6039V21ZM30.8449 21H29.7102V10.3633H30.8449V21ZM39.418 17.2471C39.418 18.4684 39.1104 19.4232 38.4951 20.1113C37.8799 20.7949 37.0299 21.1367 35.9453 21.1367C35.2754 21.1367 34.6807 20.9795 34.1611 20.665C33.6416 20.3506 33.2406 19.8994 32.958 19.3115C32.6755 18.7236 32.5342 18.0355 32.5342 17.2471C32.5342 16.0257 32.8395 15.0755 33.4502 14.3965C34.0609 13.7129 34.9085 13.3711 35.9932 13.3711C37.0413 13.3711 37.873 13.7197 38.4883 14.417C39.1081 15.1143 39.418 16.0576 39.418 17.2471ZM33.71 17.2471C33.71 18.2041 33.9014 18.9333 34.2842 19.4346C34.667 19.9359 35.2298 20.1865 35.9727 20.1865C36.7155 20.1865 37.2783 19.9382 37.6611 19.4414C38.0485 18.9401 38.2422 18.2087 38.2422 17.2471C38.2422 16.2946 38.0485 15.5723 37.6611 15.0801C37.2783 14.5833 36.7109 14.335 35.959 14.335C35.2161 14.335 34.6556 14.5788 34.2773 15.0664C33.8991 15.554 33.71 16.2809 33.71 17.2471ZM47.2322 21L45.8582 16.6045C45.7716 16.3356 45.6098 15.7249 45.3729 14.7725H45.3182C45.1359 15.57 44.9764 16.1852 44.8396 16.6182L43.4246 21H42.1121L40.0682 13.5078H41.2576C41.7407 15.39 42.1076 16.8232 42.3582 17.8076C42.6134 18.792 42.7592 19.4551 42.7957 19.7969H42.8504C42.9005 19.5371 42.9803 19.2021 43.0896 18.792C43.2036 18.3773 43.3016 18.0492 43.3836 17.8076L44.7576 13.5078H45.9881L47.3279 17.8076C47.5831 18.5915 47.7563 19.25 47.8475 19.7832H47.9021C47.9204 19.6191 47.9682 19.3662 48.0457 19.0244C48.1277 18.6826 48.604 16.8438 49.4744 13.5078H50.6502L48.5789 21H47.2322ZM56.1137 13.5078V18.3682C56.1137 18.9788 56.2527 19.4346 56.5307 19.7354C56.8087 20.0361 57.2439 20.1865 57.8363 20.1865C58.6202 20.1865 59.1921 19.9723 59.5522 19.5439C59.9167 19.1156 60.099 18.416 60.099 17.4453V13.5078H61.2338V21H60.2973L60.1332 19.9951H60.0717C59.8393 20.3643 59.5157 20.6468 59.101 20.8428C58.6908 21.0387 58.2214 21.1367 57.6928 21.1367C56.7813 21.1367 56.0977 20.9202 55.642 20.4873C55.1908 20.0544 54.9652 19.3617 54.9652 18.4092V13.5078H56.1137ZM68.1799 18.9561C68.1799 19.6533 67.9201 20.1911 67.4006 20.5693C66.8811 20.9476 66.1519 21.1367 65.2131 21.1367C64.2196 21.1367 63.4449 20.9795 62.8889 20.665V19.6123C63.2489 19.7946 63.634 19.9382 64.0441 20.043C64.4589 20.1478 64.8576 20.2002 65.2404 20.2002C65.8329 20.2002 66.2886 20.1068 66.6076 19.9199C66.9266 19.7285 67.0861 19.4391 67.0861 19.0518C67.0861 18.7601 66.9585 18.5117 66.7033 18.3066C66.4527 18.097 65.9605 17.8509 65.2268 17.5684C64.5295 17.3086 64.0327 17.083 63.7365 16.8916C63.4449 16.6956 63.2261 16.4746 63.0803 16.2285C62.939 15.9824 62.8684 15.6885 62.8684 15.3467C62.8684 14.736 63.1167 14.2552 63.6135 13.9043C64.1102 13.5488 64.7915 13.3711 65.6574 13.3711C66.4641 13.3711 67.2525 13.5352 68.0227 13.8633L67.6193 14.7861C66.8674 14.4762 66.1861 14.3213 65.5754 14.3213C65.0376 14.3213 64.632 14.4056 64.3586 14.5742C64.0852 14.7428 63.9484 14.9753 63.9484 15.2715C63.9484 15.472 63.9986 15.6429 64.0988 15.7842C64.2036 15.9255 64.37 16.0599 64.5979 16.1875C64.8257 16.3151 65.2632 16.4997 65.9104 16.7412C66.799 17.0648 67.3983 17.3906 67.7082 17.7188C68.0227 18.0469 68.1799 18.4593 68.1799 18.9561Z" fill="white" />
</svg>